<mxfile host="app.diagrams.net" modified="2023-06-16T01:15:45.187Z" agent="Mozilla/5.0 (Macintosh; Intel Mac OS X 10_15_7) AppleWebKit/537.36 (KHTML, like Gecko) Chrome/113.0.0.0 Safari/537.36" etag="ty0ELcFFoRFcEUx3khro" version="21.3.8" type="device">
  <diagram id="XAZssRx8YIH9e5BkyWsl" name="第 1 页">
    <mxGraphModel dx="3077" dy="991" grid="1" gridSize="10" guides="1" tooltips="1" connect="1" arrows="1" fold="1" page="1" pageScale="1" pageWidth="827" pageHeight="1169" math="0" shadow="0">
      <root>
        <mxCell id="0" />
        <mxCell id="1" parent="0" />
        <mxCell id="LnrfKWXW1_7QK9XkgKNR-47" value="" style="rounded=0;whiteSpace=wrap;html=1;fillColor=#dae8fc;strokeColor=none;" parent="1" vertex="1">
          <mxGeometry x="-720" y="330" width="510" height="80" as="geometry" />
        </mxCell>
        <mxCell id="LnrfKWXW1_7QK9XkgKNR-14" value="" style="rounded=0;whiteSpace=wrap;html=1;fillColor=#dae8fc;strokeColor=none;" parent="1" vertex="1">
          <mxGeometry x="-720" y="40" width="510" height="70" as="geometry" />
        </mxCell>
        <mxCell id="_0mLZ7xdxn-8egXV9tlw-7" style="edgeStyle=orthogonalEdgeStyle;rounded=0;orthogonalLoop=1;jettySize=auto;html=1;entryX=0.5;entryY=0;entryDx=0;entryDy=0;" parent="1" source="_0mLZ7xdxn-8egXV9tlw-6" target="T187bEgZ6sbshKcKV5Hq-18" edge="1">
          <mxGeometry relative="1" as="geometry">
            <mxPoint x="210" y="160" as="targetPoint" />
          </mxGeometry>
        </mxCell>
        <mxCell id="_0mLZ7xdxn-8egXV9tlw-6" value="1.获取我的信息" style="ellipse;whiteSpace=wrap;html=1;" parent="1" vertex="1">
          <mxGeometry x="490" y="80" width="120" height="80" as="geometry" />
        </mxCell>
        <mxCell id="_0mLZ7xdxn-8egXV9tlw-37" value="" style="edgeStyle=orthogonalEdgeStyle;rounded=0;orthogonalLoop=1;jettySize=auto;html=1;entryX=0.5;entryY=0;entryDx=0;entryDy=0;" parent="1" source="_0mLZ7xdxn-8egXV9tlw-53" target="_0mLZ7xdxn-8egXV9tlw-15" edge="1">
          <mxGeometry relative="1" as="geometry">
            <mxPoint x="310" y="420" as="targetPoint" />
            <Array as="points">
              <mxPoint x="270" y="460" />
              <mxPoint x="175" y="460" />
            </Array>
          </mxGeometry>
        </mxCell>
        <mxCell id="_0mLZ7xdxn-8egXV9tlw-55" value="" style="edgeStyle=orthogonalEdgeStyle;rounded=0;orthogonalLoop=1;jettySize=auto;html=1;entryX=0.5;entryY=0;entryDx=0;entryDy=0;" parent="1" source="_0mLZ7xdxn-8egXV9tlw-12" target="_0mLZ7xdxn-8egXV9tlw-53" edge="1">
          <mxGeometry relative="1" as="geometry">
            <mxPoint x="310" y="420" as="targetPoint" />
          </mxGeometry>
        </mxCell>
        <mxCell id="_0mLZ7xdxn-8egXV9tlw-12" value="后端获取用户数据" style="rounded=1;whiteSpace=wrap;html=1;fillColor=#dae8fc;strokeColor=#6c8ebf;" parent="1" vertex="1">
          <mxGeometry x="250" y="280" width="130" height="60" as="geometry" />
        </mxCell>
        <mxCell id="_0mLZ7xdxn-8egXV9tlw-15" value="结束" style="ellipse;whiteSpace=wrap;html=1;" parent="1" vertex="1">
          <mxGeometry x="115" y="530" width="120" height="80" as="geometry" />
        </mxCell>
        <mxCell id="_0mLZ7xdxn-8egXV9tlw-32" value="用户信息" style="text;html=1;align=center;verticalAlign=middle;resizable=0;points=[];autosize=1;" parent="1" vertex="1">
          <mxGeometry x="150" y="430" width="60" height="20" as="geometry" />
        </mxCell>
        <mxCell id="_0mLZ7xdxn-8egXV9tlw-40" value="" style="edgeStyle=orthogonalEdgeStyle;rounded=0;orthogonalLoop=1;jettySize=auto;html=1;" parent="1" source="_0mLZ7xdxn-8egXV9tlw-38" target="_0mLZ7xdxn-8egXV9tlw-46" edge="1">
          <mxGeometry relative="1" as="geometry">
            <mxPoint x="770" y="180" as="targetPoint" />
          </mxGeometry>
        </mxCell>
        <mxCell id="_0mLZ7xdxn-8egXV9tlw-38" value="2.绑定手机" style="ellipse;whiteSpace=wrap;html=1;" parent="1" vertex="1">
          <mxGeometry x="710" y="60" width="120" height="80" as="geometry" />
        </mxCell>
        <mxCell id="PrDm2Zr-NET8_9OV9A78-14" style="edgeStyle=orthogonalEdgeStyle;rounded=0;orthogonalLoop=1;jettySize=auto;html=1;" parent="1" source="_0mLZ7xdxn-8egXV9tlw-46" target="PrDm2Zr-NET8_9OV9A78-12" edge="1">
          <mxGeometry relative="1" as="geometry" />
        </mxCell>
        <mxCell id="_0mLZ7xdxn-8egXV9tlw-46" value="后端发送手机验证码" style="rounded=1;whiteSpace=wrap;html=1;fillColor=#dae8fc;strokeColor=#6c8ebf;" parent="1" vertex="1">
          <mxGeometry x="710" y="170" width="120" height="60" as="geometry" />
        </mxCell>
        <mxCell id="PrDm2Zr-NET8_9OV9A78-55" value="" style="edgeStyle=orthogonalEdgeStyle;rounded=0;orthogonalLoop=1;jettySize=auto;html=1;entryX=0.5;entryY=0;entryDx=0;entryDy=0;" parent="1" source="_0mLZ7xdxn-8egXV9tlw-48" target="PrDm2Zr-NET8_9OV9A78-56" edge="1">
          <mxGeometry relative="1" as="geometry">
            <mxPoint x="770.0666666666666" y="440" as="targetPoint" />
          </mxGeometry>
        </mxCell>
        <mxCell id="_0mLZ7xdxn-8egXV9tlw-48" value="后端创建绑定关系并颁发token" style="rounded=1;whiteSpace=wrap;html=1;fillColor=#dae8fc;strokeColor=#6c8ebf;" parent="1" vertex="1">
          <mxGeometry x="710" y="350" width="120" height="60" as="geometry" />
        </mxCell>
        <mxCell id="_0mLZ7xdxn-8egXV9tlw-49" value="1.校验验证码&lt;br&gt;2.校验账号和手机号是否可绑定&lt;br&gt;3.解绑设备id同时绑定手机号" style="text;html=1;strokeColor=none;fillColor=none;align=center;verticalAlign=middle;whiteSpace=wrap;rounded=0;" parent="1" vertex="1">
          <mxGeometry x="840" y="330" width="120" height="95" as="geometry" />
        </mxCell>
        <mxCell id="_0mLZ7xdxn-8egXV9tlw-52" value="结束" style="ellipse;whiteSpace=wrap;html=1;" parent="1" vertex="1">
          <mxGeometry x="710" y="620" width="120" height="80" as="geometry" />
        </mxCell>
        <mxCell id="_0mLZ7xdxn-8egXV9tlw-58" value="" style="edgeStyle=orthogonalEdgeStyle;rounded=0;orthogonalLoop=1;jettySize=auto;html=1;" parent="1" source="_0mLZ7xdxn-8egXV9tlw-53" target="_0mLZ7xdxn-8egXV9tlw-63" edge="1">
          <mxGeometry relative="1" as="geometry">
            <mxPoint x="390" y="410" as="targetPoint" />
          </mxGeometry>
        </mxCell>
        <mxCell id="_0mLZ7xdxn-8egXV9tlw-53" value="是否报错且为token过期" style="rhombus;whiteSpace=wrap;html=1;fillColor=#f8cecc;strokeColor=#b85450;" parent="1" vertex="1">
          <mxGeometry x="270" y="370" width="80" height="80" as="geometry" />
        </mxCell>
        <mxCell id="_0mLZ7xdxn-8egXV9tlw-56" value="N" style="text;html=1;align=center;verticalAlign=middle;resizable=0;points=[];autosize=1;" parent="1" vertex="1">
          <mxGeometry x="230" y="440" width="20" height="20" as="geometry" />
        </mxCell>
        <mxCell id="_0mLZ7xdxn-8egXV9tlw-66" value="" style="edgeStyle=orthogonalEdgeStyle;rounded=0;orthogonalLoop=1;jettySize=auto;html=1;entryX=1;entryY=0.5;entryDx=0;entryDy=0;exitX=0.5;exitY=0;exitDx=0;exitDy=0;" parent="1" source="PrDm2Zr-NET8_9OV9A78-2" target="T187bEgZ6sbshKcKV5Hq-18" edge="1">
          <mxGeometry relative="1" as="geometry">
            <mxPoint x="590" y="290" as="targetPoint" />
            <Array as="points" />
          </mxGeometry>
        </mxCell>
        <mxCell id="PrDm2Zr-NET8_9OV9A78-123" value="" style="edgeStyle=orthogonalEdgeStyle;rounded=0;orthogonalLoop=1;jettySize=auto;html=1;entryX=1;entryY=0.5;entryDx=0;entryDy=0;exitX=0.5;exitY=0;exitDx=0;exitDy=0;" parent="1" source="T187bEgZ6sbshKcKV5Hq-29" target="PrDm2Zr-NET8_9OV9A78-2" edge="1">
          <mxGeometry relative="1" as="geometry">
            <mxPoint x="455" y="295" as="targetPoint" />
          </mxGeometry>
        </mxCell>
        <mxCell id="T187bEgZ6sbshKcKV5Hq-30" value="" style="edgeStyle=orthogonalEdgeStyle;rounded=0;orthogonalLoop=1;jettySize=auto;html=1;" parent="1" source="_0mLZ7xdxn-8egXV9tlw-61" target="T187bEgZ6sbshKcKV5Hq-29" edge="1">
          <mxGeometry relative="1" as="geometry" />
        </mxCell>
        <mxCell id="_0mLZ7xdxn-8egXV9tlw-61" value="后端换取token（登陆）" style="rounded=1;whiteSpace=wrap;html=1;fillColor=#dae8fc;strokeColor=#6c8ebf;" parent="1" vertex="1">
          <mxGeometry x="380" y="395" width="100" height="45" as="geometry" />
        </mxCell>
        <mxCell id="_0mLZ7xdxn-8egXV9tlw-64" value="" style="edgeStyle=orthogonalEdgeStyle;rounded=0;orthogonalLoop=1;jettySize=auto;html=1;" parent="1" source="_0mLZ7xdxn-8egXV9tlw-63" target="_0mLZ7xdxn-8egXV9tlw-61" edge="1">
          <mxGeometry relative="1" as="geometry" />
        </mxCell>
        <mxCell id="_0mLZ7xdxn-8egXV9tlw-68" style="edgeStyle=orthogonalEdgeStyle;rounded=0;orthogonalLoop=1;jettySize=auto;html=1;entryX=0;entryY=0.5;entryDx=0;entryDy=0;" parent="1" source="_0mLZ7xdxn-8egXV9tlw-63" target="T187bEgZ6sbshKcKV5Hq-18" edge="1">
          <mxGeometry relative="1" as="geometry">
            <mxPoint x="140" y="220" as="targetPoint" />
            <Array as="points">
              <mxPoint x="310" y="630" />
              <mxPoint x="20" y="630" />
              <mxPoint x="20" y="220" />
            </Array>
          </mxGeometry>
        </mxCell>
        <mxCell id="_0mLZ7xdxn-8egXV9tlw-63" value="是否存在refreshToken" style="rhombus;whiteSpace=wrap;html=1;fillColor=#f8cecc;strokeColor=#b85450;" parent="1" vertex="1">
          <mxGeometry x="270" y="480" width="80" height="80" as="geometry" />
        </mxCell>
        <mxCell id="_0mLZ7xdxn-8egXV9tlw-67" value="Y" style="text;html=1;align=center;verticalAlign=middle;resizable=0;points=[];autosize=1;" parent="1" vertex="1">
          <mxGeometry x="310" y="450" width="20" height="20" as="geometry" />
        </mxCell>
        <mxCell id="_0mLZ7xdxn-8egXV9tlw-71" value="Y" style="text;html=1;align=center;verticalAlign=middle;resizable=0;points=[];autosize=1;" parent="1" vertex="1">
          <mxGeometry x="385" y="500" width="20" height="20" as="geometry" />
        </mxCell>
        <mxCell id="_0mLZ7xdxn-8egXV9tlw-72" value="N" style="text;html=1;align=center;verticalAlign=middle;resizable=0;points=[];autosize=1;" parent="1" vertex="1">
          <mxGeometry x="313" y="585" width="20" height="20" as="geometry" />
        </mxCell>
        <mxCell id="PrDm2Zr-NET8_9OV9A78-1" value="清理token" style="text;html=1;strokeColor=#b85450;fillColor=#f8cecc;align=center;verticalAlign=middle;whiteSpace=wrap;rounded=0;" parent="1" vertex="1">
          <mxGeometry x="240" y="620" width="150" height="20" as="geometry" />
        </mxCell>
        <mxCell id="PrDm2Zr-NET8_9OV9A78-6" value="前端" style="text;html=1;align=center;verticalAlign=middle;resizable=0;points=[];autosize=1;fillColor=#f8cecc;strokeColor=#b85450;" parent="1" vertex="1">
          <mxGeometry x="313" y="110" width="40" height="20" as="geometry" />
        </mxCell>
        <mxCell id="PrDm2Zr-NET8_9OV9A78-7" value="后端" style="text;html=1;align=center;verticalAlign=middle;resizable=0;points=[];autosize=1;fillColor=#dae8fc;strokeColor=#6c8ebf;" parent="1" vertex="1">
          <mxGeometry x="354" y="110" width="40" height="20" as="geometry" />
        </mxCell>
        <mxCell id="PrDm2Zr-NET8_9OV9A78-9" value="前端" style="text;html=1;align=center;verticalAlign=middle;resizable=0;points=[];autosize=1;fillColor=#f8cecc;strokeColor=#b85450;" parent="1" vertex="1">
          <mxGeometry x="880" y="80" width="40" height="20" as="geometry" />
        </mxCell>
        <mxCell id="PrDm2Zr-NET8_9OV9A78-10" value="后端" style="text;html=1;align=center;verticalAlign=middle;resizable=0;points=[];autosize=1;fillColor=#dae8fc;strokeColor=#6c8ebf;" parent="1" vertex="1">
          <mxGeometry x="927" y="80" width="40" height="20" as="geometry" />
        </mxCell>
        <mxCell id="PrDm2Zr-NET8_9OV9A78-15" value="" style="edgeStyle=orthogonalEdgeStyle;rounded=0;orthogonalLoop=1;jettySize=auto;html=1;" parent="1" source="PrDm2Zr-NET8_9OV9A78-12" target="_0mLZ7xdxn-8egXV9tlw-48" edge="1">
          <mxGeometry relative="1" as="geometry" />
        </mxCell>
        <mxCell id="PrDm2Zr-NET8_9OV9A78-12" value="填入验证码" style="rounded=1;whiteSpace=wrap;html=1;fillColor=#f8cecc;strokeColor=#b85450;" parent="1" vertex="1">
          <mxGeometry x="710" y="260" width="120" height="60" as="geometry" />
        </mxCell>
        <mxCell id="PrDm2Zr-NET8_9OV9A78-17" value="" style="edgeStyle=orthogonalEdgeStyle;rounded=0;orthogonalLoop=1;jettySize=auto;html=1;" parent="1" source="PrDm2Zr-NET8_9OV9A78-18" target="PrDm2Zr-NET8_9OV9A78-20" edge="1">
          <mxGeometry relative="1" as="geometry">
            <mxPoint x="1430" y="190" as="targetPoint" />
          </mxGeometry>
        </mxCell>
        <mxCell id="PrDm2Zr-NET8_9OV9A78-18" value="4.登出" style="ellipse;whiteSpace=wrap;html=1;" parent="1" vertex="1">
          <mxGeometry x="1370" y="70" width="120" height="80" as="geometry" />
        </mxCell>
        <mxCell id="PrDm2Zr-NET8_9OV9A78-19" style="edgeStyle=orthogonalEdgeStyle;rounded=0;orthogonalLoop=1;jettySize=auto;html=1;" parent="1" source="PrDm2Zr-NET8_9OV9A78-20" target="PrDm2Zr-NET8_9OV9A78-28" edge="1">
          <mxGeometry relative="1" as="geometry" />
        </mxCell>
        <mxCell id="PrDm2Zr-NET8_9OV9A78-20" value="后端登出接口" style="rounded=1;whiteSpace=wrap;html=1;fillColor=#dae8fc;strokeColor=#6c8ebf;" parent="1" vertex="1">
          <mxGeometry x="1370" y="180" width="120" height="60" as="geometry" />
        </mxCell>
        <mxCell id="PrDm2Zr-NET8_9OV9A78-24" value="结束" style="ellipse;whiteSpace=wrap;html=1;" parent="1" vertex="1">
          <mxGeometry x="1370" y="380" width="120" height="80" as="geometry" />
        </mxCell>
        <mxCell id="PrDm2Zr-NET8_9OV9A78-25" value="前端" style="text;html=1;align=center;verticalAlign=middle;resizable=0;points=[];autosize=1;fillColor=#f8cecc;strokeColor=#b85450;" parent="1" vertex="1">
          <mxGeometry x="1540" y="90" width="40" height="20" as="geometry" />
        </mxCell>
        <mxCell id="PrDm2Zr-NET8_9OV9A78-26" value="后端" style="text;html=1;align=center;verticalAlign=middle;resizable=0;points=[];autosize=1;fillColor=#dae8fc;strokeColor=#6c8ebf;" parent="1" vertex="1">
          <mxGeometry x="1587" y="90" width="40" height="20" as="geometry" />
        </mxCell>
        <mxCell id="PrDm2Zr-NET8_9OV9A78-27" value="" style="edgeStyle=orthogonalEdgeStyle;rounded=0;orthogonalLoop=1;jettySize=auto;html=1;" parent="1" source="PrDm2Zr-NET8_9OV9A78-28" target="PrDm2Zr-NET8_9OV9A78-24" edge="1">
          <mxGeometry relative="1" as="geometry">
            <mxPoint x="1430" y="360" as="targetPoint" />
          </mxGeometry>
        </mxCell>
        <mxCell id="PrDm2Zr-NET8_9OV9A78-28" value="&lt;span style=&quot;font-family: &amp;#34;helvetica&amp;#34;&quot;&gt;清理 token&lt;/span&gt;" style="rounded=1;whiteSpace=wrap;html=1;fillColor=#f8cecc;strokeColor=#b85450;" parent="1" vertex="1">
          <mxGeometry x="1370" y="270" width="120" height="60" as="geometry" />
        </mxCell>
        <mxCell id="PrDm2Zr-NET8_9OV9A78-29" value="&lt;span style=&quot;color: rgb(23 , 43 , 77) ; font-family: , &amp;#34;system-ui&amp;#34; , &amp;#34;segoe ui&amp;#34; , &amp;#34;roboto&amp;#34; , &amp;#34;oxygen&amp;#34; , &amp;#34;ubuntu&amp;#34; , &amp;#34;fira sans&amp;#34; , &amp;#34;droid sans&amp;#34; , &amp;#34;helvetica neue&amp;#34; , sans-serif ; font-size: 14px ; text-align: left ; background-color: rgb(255 , 255 , 255)&quot;&gt;1.记录登出日志&lt;br&gt;&lt;/span&gt;" style="text;html=1;align=center;verticalAlign=middle;resizable=0;points=[];autosize=1;" parent="1" vertex="1">
          <mxGeometry x="1535" y="200" width="110" height="20" as="geometry" />
        </mxCell>
        <mxCell id="PrDm2Zr-NET8_9OV9A78-31" value="" style="edgeStyle=orthogonalEdgeStyle;rounded=0;orthogonalLoop=1;jettySize=auto;html=1;" parent="1" source="PrDm2Zr-NET8_9OV9A78-32" target="PrDm2Zr-NET8_9OV9A78-34" edge="1">
          <mxGeometry relative="1" as="geometry">
            <mxPoint x="1120" y="190" as="targetPoint" />
          </mxGeometry>
        </mxCell>
        <mxCell id="PrDm2Zr-NET8_9OV9A78-32" value="3.登录" style="ellipse;whiteSpace=wrap;html=1;" parent="1" vertex="1">
          <mxGeometry x="1060" y="70" width="120" height="80" as="geometry" />
        </mxCell>
        <mxCell id="PrDm2Zr-NET8_9OV9A78-33" style="edgeStyle=orthogonalEdgeStyle;rounded=0;orthogonalLoop=1;jettySize=auto;html=1;" parent="1" source="PrDm2Zr-NET8_9OV9A78-34" target="PrDm2Zr-NET8_9OV9A78-41" edge="1">
          <mxGeometry relative="1" as="geometry" />
        </mxCell>
        <mxCell id="PrDm2Zr-NET8_9OV9A78-34" value="后端发送手机验证码" style="rounded=1;whiteSpace=wrap;html=1;fillColor=#dae8fc;strokeColor=#6c8ebf;" parent="1" vertex="1">
          <mxGeometry x="1060" y="180" width="120" height="60" as="geometry" />
        </mxCell>
        <mxCell id="PrDm2Zr-NET8_9OV9A78-35" value="" style="edgeStyle=orthogonalEdgeStyle;rounded=0;orthogonalLoop=1;jettySize=auto;html=1;" parent="1" source="PrDm2Zr-NET8_9OV9A78-36" edge="1">
          <mxGeometry relative="1" as="geometry">
            <mxPoint x="1120" y="450" as="targetPoint" />
          </mxGeometry>
        </mxCell>
        <mxCell id="PrDm2Zr-NET8_9OV9A78-36" value="登录（绑定、切换）&lt;br&gt;颁发 token" style="rounded=1;whiteSpace=wrap;html=1;fillColor=#dae8fc;strokeColor=#6c8ebf;" parent="1" vertex="1">
          <mxGeometry x="1060" y="360" width="120" height="60" as="geometry" />
        </mxCell>
        <mxCell id="PrDm2Zr-NET8_9OV9A78-37" value="1.校验验证码&lt;br&gt;&amp;nbsp;2.绑定或者切换（记录当前设备信息，ip信息和登录日志）" style="text;html=1;strokeColor=none;fillColor=none;align=center;verticalAlign=middle;whiteSpace=wrap;rounded=0;" parent="1" vertex="1">
          <mxGeometry x="1190" y="350" width="170" height="90" as="geometry" />
        </mxCell>
        <mxCell id="PrDm2Zr-NET8_9OV9A78-38" value="前端" style="text;html=1;align=center;verticalAlign=middle;resizable=0;points=[];autosize=1;fillColor=#f8cecc;strokeColor=#b85450;" parent="1" vertex="1">
          <mxGeometry x="1230" y="90" width="40" height="20" as="geometry" />
        </mxCell>
        <mxCell id="PrDm2Zr-NET8_9OV9A78-39" value="后端" style="text;html=1;align=center;verticalAlign=middle;resizable=0;points=[];autosize=1;fillColor=#dae8fc;strokeColor=#6c8ebf;" parent="1" vertex="1">
          <mxGeometry x="1277" y="90" width="40" height="20" as="geometry" />
        </mxCell>
        <mxCell id="PrDm2Zr-NET8_9OV9A78-40" value="" style="edgeStyle=orthogonalEdgeStyle;rounded=0;orthogonalLoop=1;jettySize=auto;html=1;" parent="1" source="PrDm2Zr-NET8_9OV9A78-41" target="PrDm2Zr-NET8_9OV9A78-36" edge="1">
          <mxGeometry relative="1" as="geometry" />
        </mxCell>
        <mxCell id="PrDm2Zr-NET8_9OV9A78-41" value="填入验证码" style="rounded=1;whiteSpace=wrap;html=1;fillColor=#f8cecc;strokeColor=#b85450;" parent="1" vertex="1">
          <mxGeometry x="1060" y="270" width="120" height="60" as="geometry" />
        </mxCell>
        <mxCell id="PrDm2Zr-NET8_9OV9A78-43" value="结束" style="ellipse;whiteSpace=wrap;html=1;" parent="1" vertex="1">
          <mxGeometry x="1060" y="520" width="120" height="80" as="geometry" />
        </mxCell>
        <mxCell id="T187bEgZ6sbshKcKV5Hq-10" value="" style="edgeStyle=orthogonalEdgeStyle;rounded=0;orthogonalLoop=1;jettySize=auto;html=1;" parent="1" source="PrDm2Zr-NET8_9OV9A78-44" target="T187bEgZ6sbshKcKV5Hq-9" edge="1">
          <mxGeometry relative="1" as="geometry" />
        </mxCell>
        <mxCell id="PrDm2Zr-NET8_9OV9A78-44" value="账号初始化" style="ellipse;whiteSpace=wrap;html=1;" parent="1" vertex="1">
          <mxGeometry x="1790" y="20" width="120" height="80" as="geometry" />
        </mxCell>
        <mxCell id="PrDm2Zr-NET8_9OV9A78-50" style="edgeStyle=orthogonalEdgeStyle;rounded=0;orthogonalLoop=1;jettySize=auto;html=1;exitX=0.5;exitY=1;exitDx=0;exitDy=0;" parent="1" source="PrDm2Zr-NET8_9OV9A78-2" target="PrDm2Zr-NET8_9OV9A78-2" edge="1">
          <mxGeometry relative="1" as="geometry" />
        </mxCell>
        <mxCell id="PrDm2Zr-NET8_9OV9A78-53" value="" style="edgeStyle=orthogonalEdgeStyle;rounded=0;orthogonalLoop=1;jettySize=auto;html=1;" parent="1" target="PrDm2Zr-NET8_9OV9A78-43" edge="1">
          <mxGeometry relative="1" as="geometry">
            <mxPoint x="1120" y="480" as="sourcePoint" />
          </mxGeometry>
        </mxCell>
        <mxCell id="PrDm2Zr-NET8_9OV9A78-58" value="" style="edgeStyle=orthogonalEdgeStyle;rounded=0;orthogonalLoop=1;jettySize=auto;html=1;entryX=0;entryY=0.5;entryDx=0;entryDy=0;" parent="1" source="PrDm2Zr-NET8_9OV9A78-56" target="PrDm2Zr-NET8_9OV9A78-68" edge="1">
          <mxGeometry relative="1" as="geometry">
            <mxPoint x="925" y="480" as="targetPoint" />
          </mxGeometry>
        </mxCell>
        <mxCell id="PrDm2Zr-NET8_9OV9A78-60" value="" style="edgeStyle=orthogonalEdgeStyle;rounded=0;orthogonalLoop=1;jettySize=auto;html=1;entryX=0.5;entryY=0;entryDx=0;entryDy=0;" parent="1" source="PrDm2Zr-NET8_9OV9A78-56" target="T187bEgZ6sbshKcKV5Hq-17" edge="1">
          <mxGeometry relative="1" as="geometry">
            <mxPoint x="770" y="560" as="targetPoint" />
          </mxGeometry>
        </mxCell>
        <mxCell id="PrDm2Zr-NET8_9OV9A78-56" value="是否绑定成功" style="rhombus;whiteSpace=wrap;html=1;" parent="1" vertex="1">
          <mxGeometry x="695" y="440" width="150" height="80" as="geometry" />
        </mxCell>
        <mxCell id="PrDm2Zr-NET8_9OV9A78-62" value="" style="edgeStyle=orthogonalEdgeStyle;rounded=0;orthogonalLoop=1;jettySize=auto;html=1;" parent="1" target="_0mLZ7xdxn-8egXV9tlw-52" edge="1">
          <mxGeometry relative="1" as="geometry">
            <mxPoint x="770.0666666666666" y="585" as="sourcePoint" />
          </mxGeometry>
        </mxCell>
        <mxCell id="PrDm2Zr-NET8_9OV9A78-64" value="N" style="text;html=1;align=center;verticalAlign=middle;resizable=0;points=[];autosize=1;" parent="1" vertex="1">
          <mxGeometry x="860" y="480" width="20" height="20" as="geometry" />
        </mxCell>
        <mxCell id="PrDm2Zr-NET8_9OV9A78-65" value="Y" style="text;html=1;align=center;verticalAlign=middle;resizable=0;points=[];autosize=1;" parent="1" vertex="1">
          <mxGeometry x="780" y="520" width="20" height="20" as="geometry" />
        </mxCell>
        <mxCell id="PrDm2Zr-NET8_9OV9A78-68" value="&lt;span style=&quot;color: rgb(0 , 0 , 0) ; font-family: &amp;#34;helvetica&amp;#34; ; font-size: 12px ; font-style: normal ; font-weight: 400 ; letter-spacing: normal ; text-align: center ; text-indent: 0px ; text-transform: none ; word-spacing: 0px ; display: inline ; float: none&quot;&gt;告警：手机号已绑定&lt;/span&gt;" style="text;whiteSpace=wrap;html=1;fillColor=#f8cecc;strokeColor=#b85450;" parent="1" vertex="1">
          <mxGeometry x="910.5" y="457.5" width="73" height="45" as="geometry" />
        </mxCell>
        <mxCell id="PrDm2Zr-NET8_9OV9A78-84" value="" style="edgeStyle=orthogonalEdgeStyle;rounded=0;orthogonalLoop=1;jettySize=auto;html=1;" parent="1" source="PrDm2Zr-NET8_9OV9A78-75" target="PrDm2Zr-NET8_9OV9A78-83" edge="1">
          <mxGeometry relative="1" as="geometry" />
        </mxCell>
        <mxCell id="PrDm2Zr-NET8_9OV9A78-75" value="后端初始化账号信息" style="rounded=1;whiteSpace=wrap;html=1;fillColor=#dae8fc;strokeColor=#6c8ebf;" parent="1" vertex="1">
          <mxGeometry x="1790" y="230" width="120" height="60" as="geometry" />
        </mxCell>
        <mxCell id="PrDm2Zr-NET8_9OV9A78-85" value="" style="edgeStyle=orthogonalEdgeStyle;rounded=0;orthogonalLoop=1;jettySize=auto;html=1;" parent="1" source="PrDm2Zr-NET8_9OV9A78-83" target="PrDm2Zr-NET8_9OV9A78-79" edge="1">
          <mxGeometry relative="1" as="geometry" />
        </mxCell>
        <mxCell id="PrDm2Zr-NET8_9OV9A78-83" value="设置token、refreshToken" style="rounded=1;whiteSpace=wrap;html=1;fillColor=#f8cecc;strokeColor=#b85450;" parent="1" vertex="1">
          <mxGeometry x="1790" y="320" width="120" height="35" as="geometry" />
        </mxCell>
        <mxCell id="PrDm2Zr-NET8_9OV9A78-78" value="幂等&lt;br&gt;生成或获取账号" style="text;html=1;strokeColor=none;fillColor=none;align=center;verticalAlign=middle;whiteSpace=wrap;rounded=0;" parent="1" vertex="1">
          <mxGeometry x="1890" y="250" width="150" height="20" as="geometry" />
        </mxCell>
        <mxCell id="PrDm2Zr-NET8_9OV9A78-79" value="结束" style="ellipse;whiteSpace=wrap;html=1;" parent="1" vertex="1">
          <mxGeometry x="1790" y="390" width="120" height="80" as="geometry" />
        </mxCell>
        <mxCell id="PrDm2Zr-NET8_9OV9A78-90" value="传设备id等" style="text;html=1;align=center;verticalAlign=middle;resizable=0;points=[];autosize=1;" parent="1" vertex="1">
          <mxGeometry x="1855" y="200" width="70" height="20" as="geometry" />
        </mxCell>
        <mxCell id="PrDm2Zr-NET8_9OV9A78-91" value="" style="edgeStyle=orthogonalEdgeStyle;rounded=0;orthogonalLoop=1;jettySize=auto;html=1;entryX=0.5;entryY=0;entryDx=0;entryDy=0;" parent="1" source="PrDm2Zr-NET8_9OV9A78-92" target="PrDm2Zr-NET8_9OV9A78-94" edge="1">
          <mxGeometry relative="1" as="geometry">
            <mxPoint x="130" y="910" as="targetPoint" />
          </mxGeometry>
        </mxCell>
        <mxCell id="PrDm2Zr-NET8_9OV9A78-92" value="后端需认证接口" style="rounded=1;whiteSpace=wrap;html=1;fillColor=#dae8fc;strokeColor=#6c8ebf;" parent="1" vertex="1">
          <mxGeometry x="70" y="770" width="130" height="60" as="geometry" />
        </mxCell>
        <mxCell id="PrDm2Zr-NET8_9OV9A78-93" value="" style="edgeStyle=orthogonalEdgeStyle;rounded=0;orthogonalLoop=1;jettySize=auto;html=1;" parent="1" source="PrDm2Zr-NET8_9OV9A78-94" target="PrDm2Zr-NET8_9OV9A78-98" edge="1">
          <mxGeometry relative="1" as="geometry">
            <mxPoint x="210" y="900" as="targetPoint" />
          </mxGeometry>
        </mxCell>
        <mxCell id="PrDm2Zr-NET8_9OV9A78-94" value="是否报错且为token过期" style="rhombus;whiteSpace=wrap;html=1;fillColor=#f8cecc;strokeColor=#b85450;" parent="1" vertex="1">
          <mxGeometry x="90" y="860" width="80" height="80" as="geometry" />
        </mxCell>
        <mxCell id="PrDm2Zr-NET8_9OV9A78-95" value="" style="edgeStyle=orthogonalEdgeStyle;rounded=0;orthogonalLoop=1;jettySize=auto;html=1;entryX=1;entryY=0.5;entryDx=0;entryDy=0;exitX=0.5;exitY=0;exitDx=0;exitDy=0;" parent="1" source="PrDm2Zr-NET8_9OV9A78-103" target="T187bEgZ6sbshKcKV5Hq-24" edge="1">
          <mxGeometry relative="1" as="geometry">
            <mxPoint x="410" y="780" as="targetPoint" />
            <Array as="points" />
          </mxGeometry>
        </mxCell>
        <mxCell id="PrDm2Zr-NET8_9OV9A78-108" value="" style="edgeStyle=orthogonalEdgeStyle;rounded=0;orthogonalLoop=1;jettySize=auto;html=1;" parent="1" source="PrDm2Zr-NET8_9OV9A78-96" target="PrDm2Zr-NET8_9OV9A78-109" edge="1">
          <mxGeometry relative="1" as="geometry">
            <mxPoint x="420" y="897.5" as="targetPoint" />
          </mxGeometry>
        </mxCell>
        <mxCell id="PrDm2Zr-NET8_9OV9A78-96" value="后端换取token（登陆）" style="rounded=1;whiteSpace=wrap;html=1;fillColor=#dae8fc;strokeColor=#6c8ebf;" parent="1" vertex="1">
          <mxGeometry x="205" y="886" width="90" height="44" as="geometry" />
        </mxCell>
        <mxCell id="PrDm2Zr-NET8_9OV9A78-97" value="" style="edgeStyle=orthogonalEdgeStyle;rounded=0;orthogonalLoop=1;jettySize=auto;html=1;" parent="1" source="PrDm2Zr-NET8_9OV9A78-98" target="PrDm2Zr-NET8_9OV9A78-96" edge="1">
          <mxGeometry relative="1" as="geometry" />
        </mxCell>
        <mxCell id="PrDm2Zr-NET8_9OV9A78-106" value="" style="edgeStyle=orthogonalEdgeStyle;rounded=0;orthogonalLoop=1;jettySize=auto;html=1;entryX=0.444;entryY=-0.1;entryDx=0;entryDy=0;entryPerimeter=0;" parent="1" source="PrDm2Zr-NET8_9OV9A78-98" target="PrDm2Zr-NET8_9OV9A78-102" edge="1">
          <mxGeometry relative="1" as="geometry">
            <mxPoint x="130" y="1130" as="targetPoint" />
          </mxGeometry>
        </mxCell>
        <mxCell id="PrDm2Zr-NET8_9OV9A78-115" value="" style="edgeStyle=orthogonalEdgeStyle;rounded=0;orthogonalLoop=1;jettySize=auto;html=1;exitX=0;exitY=0.5;exitDx=0;exitDy=0;" parent="1" source="PrDm2Zr-NET8_9OV9A78-94" target="PrDm2Zr-NET8_9OV9A78-116" edge="1">
          <mxGeometry relative="1" as="geometry">
            <mxPoint x="-30" y="970" as="targetPoint" />
          </mxGeometry>
        </mxCell>
        <mxCell id="PrDm2Zr-NET8_9OV9A78-98" value="是否存在refreshToken" style="rhombus;whiteSpace=wrap;html=1;fillColor=#f8cecc;strokeColor=#b85450;" parent="1" vertex="1">
          <mxGeometry x="90" y="970" width="80" height="80" as="geometry" />
        </mxCell>
        <mxCell id="PrDm2Zr-NET8_9OV9A78-99" value="Y" style="text;html=1;align=center;verticalAlign=middle;resizable=0;points=[];autosize=1;" parent="1" vertex="1">
          <mxGeometry x="130" y="940" width="20" height="20" as="geometry" />
        </mxCell>
        <mxCell id="PrDm2Zr-NET8_9OV9A78-100" value="Y" style="text;html=1;align=center;verticalAlign=middle;resizable=0;points=[];autosize=1;" parent="1" vertex="1">
          <mxGeometry x="205" y="990" width="20" height="20" as="geometry" />
        </mxCell>
        <mxCell id="PrDm2Zr-NET8_9OV9A78-101" value="N" style="text;html=1;align=center;verticalAlign=middle;resizable=0;points=[];autosize=1;" parent="1" vertex="1">
          <mxGeometry x="133" y="1075" width="20" height="20" as="geometry" />
        </mxCell>
        <mxCell id="PrDm2Zr-NET8_9OV9A78-117" style="edgeStyle=orthogonalEdgeStyle;rounded=0;orthogonalLoop=1;jettySize=auto;html=1;entryX=0;entryY=0.5;entryDx=0;entryDy=0;" parent="1" source="PrDm2Zr-NET8_9OV9A78-102" target="T187bEgZ6sbshKcKV5Hq-24" edge="1">
          <mxGeometry relative="1" as="geometry">
            <Array as="points">
              <mxPoint x="-130" y="1110" />
              <mxPoint x="-130" y="700" />
            </Array>
          </mxGeometry>
        </mxCell>
        <mxCell id="PrDm2Zr-NET8_9OV9A78-102" value="清理token" style="text;html=1;strokeColor=#b85450;fillColor=#f8cecc;align=center;verticalAlign=middle;whiteSpace=wrap;rounded=0;" parent="1" vertex="1">
          <mxGeometry x="63" y="1100" width="150" height="20" as="geometry" />
        </mxCell>
        <mxCell id="PrDm2Zr-NET8_9OV9A78-104" style="edgeStyle=orthogonalEdgeStyle;rounded=0;orthogonalLoop=1;jettySize=auto;html=1;exitX=0.5;exitY=1;exitDx=0;exitDy=0;" parent="1" source="PrDm2Zr-NET8_9OV9A78-103" target="PrDm2Zr-NET8_9OV9A78-103" edge="1">
          <mxGeometry relative="1" as="geometry" />
        </mxCell>
        <mxCell id="PrDm2Zr-NET8_9OV9A78-110" style="edgeStyle=orthogonalEdgeStyle;rounded=0;orthogonalLoop=1;jettySize=auto;html=1;entryX=1;entryY=0.5;entryDx=0;entryDy=0;exitX=0.5;exitY=1;exitDx=0;exitDy=0;" parent="1" source="PrDm2Zr-NET8_9OV9A78-109" target="PrDm2Zr-NET8_9OV9A78-102" edge="1">
          <mxGeometry relative="1" as="geometry">
            <Array as="points">
              <mxPoint x="418" y="1110" />
            </Array>
          </mxGeometry>
        </mxCell>
        <mxCell id="PrDm2Zr-NET8_9OV9A78-109" value="refreshtoken 是否过期" style="rhombus;whiteSpace=wrap;html=1;fillColor=#f8cecc;strokeColor=#b85450;" parent="1" vertex="1">
          <mxGeometry x="353" y="869.25" width="130" height="77.5" as="geometry" />
        </mxCell>
        <mxCell id="PrDm2Zr-NET8_9OV9A78-111" value="Y" style="text;html=1;align=center;verticalAlign=middle;resizable=0;points=[];autosize=1;" parent="1" vertex="1">
          <mxGeometry x="420" y="960" width="20" height="20" as="geometry" />
        </mxCell>
        <mxCell id="PrDm2Zr-NET8_9OV9A78-103" value="设置 token" style="text;html=1;strokeColor=#b85450;fillColor=#f8cecc;align=center;verticalAlign=middle;whiteSpace=wrap;rounded=0;" parent="1" vertex="1">
          <mxGeometry x="278" y="790" width="90" height="20" as="geometry" />
        </mxCell>
        <mxCell id="PrDm2Zr-NET8_9OV9A78-113" value="" style="edgeStyle=orthogonalEdgeStyle;rounded=0;orthogonalLoop=1;jettySize=auto;html=1;entryX=1;entryY=0.5;entryDx=0;entryDy=0;exitX=0.5;exitY=0;exitDx=0;exitDy=0;" parent="1" source="PrDm2Zr-NET8_9OV9A78-109" target="PrDm2Zr-NET8_9OV9A78-103" edge="1">
          <mxGeometry relative="1" as="geometry">
            <mxPoint x="200" y="800" as="targetPoint" />
            <Array as="points">
              <mxPoint x="418" y="800" />
            </Array>
            <mxPoint x="445" y="860" as="sourcePoint" />
          </mxGeometry>
        </mxCell>
        <mxCell id="PrDm2Zr-NET8_9OV9A78-116" value="结束" style="ellipse;whiteSpace=wrap;html=1;" parent="1" vertex="1">
          <mxGeometry x="-90" y="930" width="120" height="80" as="geometry" />
        </mxCell>
        <mxCell id="PrDm2Zr-NET8_9OV9A78-118" value="业务处理" style="text;html=1;align=center;verticalAlign=middle;resizable=0;points=[];autosize=1;" parent="1" vertex="1">
          <mxGeometry x="-29" y="1092" width="60" height="20" as="geometry" />
        </mxCell>
        <mxCell id="PrDm2Zr-NET8_9OV9A78-119" value="结果返回" style="text;html=1;align=center;verticalAlign=middle;resizable=0;points=[];autosize=1;" parent="1" vertex="1">
          <mxGeometry x="30" y="970" width="60" height="20" as="geometry" />
        </mxCell>
        <mxCell id="PrDm2Zr-NET8_9OV9A78-2" value="设置 token" style="text;html=1;strokeColor=#b85450;fillColor=#f8cecc;align=center;verticalAlign=middle;whiteSpace=wrap;rounded=0;" parent="1" vertex="1">
          <mxGeometry x="420" y="310" width="90" height="20" as="geometry" />
        </mxCell>
        <mxCell id="T187bEgZ6sbshKcKV5Hq-1" value="游客" style="text;html=1;align=center;verticalAlign=middle;resizable=0;points=[];autosize=1;" parent="1" vertex="1">
          <mxGeometry x="1910" y="330" width="40" height="20" as="geometry" />
        </mxCell>
        <mxCell id="T187bEgZ6sbshKcKV5Hq-2" value="正式" style="text;html=1;align=center;verticalAlign=middle;resizable=0;points=[];autosize=1;" parent="1" vertex="1">
          <mxGeometry x="1180" y="455" width="40" height="20" as="geometry" />
        </mxCell>
        <mxCell id="T187bEgZ6sbshKcKV5Hq-3" value="正式" style="text;html=1;align=center;verticalAlign=middle;resizable=0;points=[];autosize=1;" parent="1" vertex="1">
          <mxGeometry x="830" y="560" width="40" height="20" as="geometry" />
        </mxCell>
        <mxCell id="T187bEgZ6sbshKcKV5Hq-11" value="" style="edgeStyle=orthogonalEdgeStyle;rounded=0;orthogonalLoop=1;jettySize=auto;html=1;" parent="1" source="T187bEgZ6sbshKcKV5Hq-9" target="PrDm2Zr-NET8_9OV9A78-75" edge="1">
          <mxGeometry relative="1" as="geometry" />
        </mxCell>
        <mxCell id="T187bEgZ6sbshKcKV5Hq-14" value="" style="edgeStyle=orthogonalEdgeStyle;rounded=0;orthogonalLoop=1;jettySize=auto;html=1;entryX=1;entryY=0.5;entryDx=0;entryDy=0;" parent="1" source="T187bEgZ6sbshKcKV5Hq-9" target="PrDm2Zr-NET8_9OV9A78-79" edge="1">
          <mxGeometry relative="1" as="geometry">
            <mxPoint x="2005" y="160" as="targetPoint" />
            <Array as="points">
              <mxPoint x="2020" y="160" />
              <mxPoint x="2020" y="430" />
            </Array>
          </mxGeometry>
        </mxCell>
        <mxCell id="T187bEgZ6sbshKcKV5Hq-9" value="是否已授权&lt;br&gt;（localstorage token 是否存在）" style="rhombus;whiteSpace=wrap;html=1;fillColor=#f8cecc;strokeColor=#b85450;" parent="1" vertex="1">
          <mxGeometry x="1775" y="120" width="150" height="80" as="geometry" />
        </mxCell>
        <mxCell id="T187bEgZ6sbshKcKV5Hq-12" value="N" style="text;html=1;align=center;verticalAlign=middle;resizable=0;points=[];autosize=1;" parent="1" vertex="1">
          <mxGeometry x="1827" y="200" width="20" height="20" as="geometry" />
        </mxCell>
        <mxCell id="T187bEgZ6sbshKcKV5Hq-15" value="Y" style="text;html=1;align=center;verticalAlign=middle;resizable=0;points=[];autosize=1;" parent="1" vertex="1">
          <mxGeometry x="1963" y="143" width="20" height="20" as="geometry" />
        </mxCell>
        <mxCell id="T187bEgZ6sbshKcKV5Hq-16" value="设置token、refreshToken" style="rounded=1;whiteSpace=wrap;html=1;fillColor=#f8cecc;strokeColor=#b85450;" parent="1" vertex="1">
          <mxGeometry x="1060" y="450" width="120" height="35" as="geometry" />
        </mxCell>
        <mxCell id="T187bEgZ6sbshKcKV5Hq-17" value="设置token、refreshToken" style="rounded=1;whiteSpace=wrap;html=1;fillColor=#f8cecc;strokeColor=#b85450;" parent="1" vertex="1">
          <mxGeometry x="710" y="552.5" width="120" height="35" as="geometry" />
        </mxCell>
        <mxCell id="T187bEgZ6sbshKcKV5Hq-20" value="" style="edgeStyle=orthogonalEdgeStyle;rounded=0;orthogonalLoop=1;jettySize=auto;html=1;entryX=0;entryY=0.5;entryDx=0;entryDy=0;" parent="1" source="T187bEgZ6sbshKcKV5Hq-18" target="_0mLZ7xdxn-8egXV9tlw-12" edge="1">
          <mxGeometry relative="1" as="geometry">
            <mxPoint x="210" y="303" as="targetPoint" />
          </mxGeometry>
        </mxCell>
        <mxCell id="T187bEgZ6sbshKcKV5Hq-18" value="账号初始化" style="rounded=1;whiteSpace=wrap;html=1;" parent="1" vertex="1">
          <mxGeometry x="150" y="190" width="120" height="60" as="geometry" />
        </mxCell>
        <mxCell id="T187bEgZ6sbshKcKV5Hq-21" value="重新调用" style="text;html=1;align=center;verticalAlign=middle;resizable=0;points=[];autosize=1;" parent="1" vertex="1">
          <mxGeometry x="18" y="361" width="60" height="20" as="geometry" />
        </mxCell>
        <mxCell id="T187bEgZ6sbshKcKV5Hq-22" value="正式" style="text;html=1;align=center;verticalAlign=middle;resizable=0;points=[];autosize=1;" parent="1" vertex="1">
          <mxGeometry x="470" y="290" width="40" height="20" as="geometry" />
        </mxCell>
        <mxCell id="T187bEgZ6sbshKcKV5Hq-23" value="重新调用" style="text;html=1;align=center;verticalAlign=middle;resizable=0;points=[];autosize=1;" parent="1" vertex="1">
          <mxGeometry x="354" y="200" width="60" height="20" as="geometry" />
        </mxCell>
        <mxCell id="T187bEgZ6sbshKcKV5Hq-25" value="" style="edgeStyle=orthogonalEdgeStyle;rounded=0;orthogonalLoop=1;jettySize=auto;html=1;" parent="1" source="T187bEgZ6sbshKcKV5Hq-24" target="PrDm2Zr-NET8_9OV9A78-92" edge="1">
          <mxGeometry relative="1" as="geometry" />
        </mxCell>
        <mxCell id="T187bEgZ6sbshKcKV5Hq-24" value="账号初始化" style="rounded=1;whiteSpace=wrap;html=1;" parent="1" vertex="1">
          <mxGeometry x="75" y="670" width="120" height="60" as="geometry" />
        </mxCell>
        <mxCell id="T187bEgZ6sbshKcKV5Hq-27" value="重新调用" style="text;html=1;align=center;verticalAlign=middle;resizable=0;points=[];autosize=1;" parent="1" vertex="1">
          <mxGeometry x="253" y="700" width="60" height="20" as="geometry" />
        </mxCell>
        <mxCell id="T187bEgZ6sbshKcKV5Hq-28" value="重新调用" style="text;html=1;align=center;verticalAlign=middle;resizable=0;points=[];autosize=1;" parent="1" vertex="1">
          <mxGeometry x="-130" y="710" width="60" height="20" as="geometry" />
        </mxCell>
        <mxCell id="T187bEgZ6sbshKcKV5Hq-31" style="edgeStyle=orthogonalEdgeStyle;rounded=0;orthogonalLoop=1;jettySize=auto;html=1;entryX=1;entryY=0.75;entryDx=0;entryDy=0;exitX=0.5;exitY=1;exitDx=0;exitDy=0;" parent="1" source="T187bEgZ6sbshKcKV5Hq-29" target="PrDm2Zr-NET8_9OV9A78-1" edge="1">
          <mxGeometry relative="1" as="geometry">
            <Array as="points">
              <mxPoint x="585" y="635" />
            </Array>
          </mxGeometry>
        </mxCell>
        <mxCell id="T187bEgZ6sbshKcKV5Hq-29" value="refreshtoken 是否过期" style="rhombus;whiteSpace=wrap;html=1;fillColor=#f8cecc;strokeColor=#b85450;" parent="1" vertex="1">
          <mxGeometry x="520" y="378.75" width="130" height="77.5" as="geometry" />
        </mxCell>
        <mxCell id="T187bEgZ6sbshKcKV5Hq-32" value="N" style="text;html=1;align=center;verticalAlign=middle;resizable=0;points=[];autosize=1;" parent="1" vertex="1">
          <mxGeometry x="590" y="341" width="20" height="20" as="geometry" />
        </mxCell>
        <mxCell id="T187bEgZ6sbshKcKV5Hq-33" value="Y" style="text;html=1;align=center;verticalAlign=middle;resizable=0;points=[];autosize=1;" parent="1" vertex="1">
          <mxGeometry x="590" y="470" width="20" height="20" as="geometry" />
        </mxCell>
        <mxCell id="T187bEgZ6sbshKcKV5Hq-34" value="N" style="text;html=1;align=center;verticalAlign=middle;resizable=0;points=[];autosize=1;" parent="1" vertex="1">
          <mxGeometry x="420" y="840" width="20" height="20" as="geometry" />
        </mxCell>
        <mxCell id="LnrfKWXW1_7QK9XkgKNR-4" value="rocksdb" style="rounded=0;whiteSpace=wrap;html=1;fillColor=#1ba1e2;strokeColor=none;fontColor=#ffffff;shadow=1;" parent="1" vertex="1">
          <mxGeometry x="-660" y="345" width="110" height="50" as="geometry" />
        </mxCell>
        <mxCell id="LnrfKWXW1_7QK9XkgKNR-18" value="web ui" style="rounded=0;whiteSpace=wrap;html=1;fillColor=#0050ef;fontColor=#ffffff;strokeColor=#001DBC;shadow=1;glass=0;" parent="1" vertex="1">
          <mxGeometry x="-670" y="55" width="120" height="40" as="geometry" />
        </mxCell>
        <mxCell id="LnrfKWXW1_7QK9XkgKNR-19" value="sdk/ rest api" style="rounded=0;whiteSpace=wrap;html=1;strokeColor=#001DBC;shadow=1;fillColor=#0050ef;fontColor=#ffffff;" parent="1" vertex="1">
          <mxGeometry x="-390" y="55" width="110" height="40" as="geometry" />
        </mxCell>
        <mxCell id="LnrfKWXW1_7QK9XkgKNR-20" value="" style="rounded=0;whiteSpace=wrap;html=1;fillColor=#dae8fc;strokeColor=none;" parent="1" vertex="1">
          <mxGeometry x="-720" y="120" width="510" height="200" as="geometry" />
        </mxCell>
        <mxCell id="LnrfKWXW1_7QK9XkgKNR-29" value="" style="group" parent="1" vertex="1" connectable="0">
          <mxGeometry x="-570" y="150" width="210" height="140" as="geometry" />
        </mxCell>
        <mxCell id="LnrfKWXW1_7QK9XkgKNR-27" value="" style="group" parent="LnrfKWXW1_7QK9XkgKNR-29" vertex="1" connectable="0">
          <mxGeometry y="30" width="210" height="110" as="geometry" />
        </mxCell>
        <mxCell id="LnrfKWXW1_7QK9XkgKNR-23" value="" style="rounded=0;whiteSpace=wrap;html=1;strokeColor=default;shadow=0;dashed=1;" parent="LnrfKWXW1_7QK9XkgKNR-27" vertex="1">
          <mxGeometry y="-30" width="210" height="140" as="geometry" />
        </mxCell>
        <mxCell id="LnrfKWXW1_7QK9XkgKNR-21" value="id生成器" style="rounded=0;whiteSpace=wrap;html=1;fillColor=#1ba1e2;strokeColor=none;shadow=0;glass=0;fontColor=#ffffff;" parent="LnrfKWXW1_7QK9XkgKNR-27" vertex="1">
          <mxGeometry x="10" y="10" width="90" height="40" as="geometry" />
        </mxCell>
        <mxCell id="LnrfKWXW1_7QK9XkgKNR-24" value="id生成器" style="rounded=0;whiteSpace=wrap;html=1;fillColor=#1ba1e2;strokeColor=none;shadow=0;glass=0;fontColor=#ffffff;" parent="LnrfKWXW1_7QK9XkgKNR-27" vertex="1">
          <mxGeometry x="107" y="10" width="90" height="40" as="geometry" />
        </mxCell>
        <mxCell id="LnrfKWXW1_7QK9XkgKNR-25" value="id生成器" style="rounded=0;whiteSpace=wrap;html=1;fillColor=#1ba1e2;strokeColor=none;shadow=0;glass=0;fontColor=#ffffff;" parent="LnrfKWXW1_7QK9XkgKNR-27" vertex="1">
          <mxGeometry x="10" y="60" width="90" height="40" as="geometry" />
        </mxCell>
        <mxCell id="LnrfKWXW1_7QK9XkgKNR-26" value="id生成器" style="rounded=0;whiteSpace=wrap;html=1;fillColor=#1ba1e2;strokeColor=none;shadow=0;glass=0;fontColor=#ffffff;" parent="LnrfKWXW1_7QK9XkgKNR-27" vertex="1">
          <mxGeometry x="107" y="60" width="90" height="40" as="geometry" />
        </mxCell>
        <mxCell id="LnrfKWXW1_7QK9XkgKNR-28" value="业务集群" style="text;html=1;strokeColor=none;fillColor=none;align=center;verticalAlign=middle;whiteSpace=wrap;rounded=0;" parent="LnrfKWXW1_7QK9XkgKNR-29" vertex="1">
          <mxGeometry x="75" width="60" height="30" as="geometry" />
        </mxCell>
        <mxCell id="LnrfKWXW1_7QK9XkgKNR-30" value="" style="rounded=0;whiteSpace=wrap;html=1;dashed=1;" parent="1" vertex="1">
          <mxGeometry x="-350" y="150" width="120" height="140" as="geometry" />
        </mxCell>
        <mxCell id="LnrfKWXW1_7QK9XkgKNR-31" value="" style="rounded=0;whiteSpace=wrap;html=1;dashed=1;" parent="1" vertex="1">
          <mxGeometry x="-700" y="150" width="120" height="140" as="geometry" />
        </mxCell>
        <mxCell id="LnrfKWXW1_7QK9XkgKNR-32" value="治理&amp;amp;配置" style="text;html=1;strokeColor=none;fillColor=none;align=center;verticalAlign=middle;whiteSpace=wrap;rounded=0;" parent="1" vertex="1">
          <mxGeometry x="-320" y="150" width="60" height="30" as="geometry" />
        </mxCell>
        <mxCell id="LnrfKWXW1_7QK9XkgKNR-42" value="consul" style="rounded=0;whiteSpace=wrap;html=1;fillColor=#e1d5e7;strokeColor=none;shadow=0;glass=0;" parent="1" vertex="1">
          <mxGeometry x="-335" y="190" width="90" height="40" as="geometry" />
        </mxCell>
        <mxCell id="LnrfKWXW1_7QK9XkgKNR-43" value="config" style="rounded=0;whiteSpace=wrap;html=1;fillColor=#e1d5e7;strokeColor=none;shadow=0;glass=0;" parent="1" vertex="1">
          <mxGeometry x="-335" y="240" width="90" height="40" as="geometry" />
        </mxCell>
        <mxCell id="LnrfKWXW1_7QK9XkgKNR-44" value="监控/统计" style="text;html=1;strokeColor=none;fillColor=none;align=center;verticalAlign=middle;whiteSpace=wrap;rounded=0;" parent="1" vertex="1">
          <mxGeometry x="-670" y="150" width="60" height="30" as="geometry" />
        </mxCell>
        <mxCell id="LnrfKWXW1_7QK9XkgKNR-45" value="prometheus" style="rounded=0;whiteSpace=wrap;html=1;fillColor=#d5e8d4;strokeColor=#82b366;shadow=0;glass=0;" parent="1" vertex="1">
          <mxGeometry x="-685" y="190" width="90" height="40" as="geometry" />
        </mxCell>
        <mxCell id="LnrfKWXW1_7QK9XkgKNR-46" value="redis" style="rounded=0;whiteSpace=wrap;html=1;fillColor=#d5e8d4;strokeColor=#82b366;shadow=0;glass=0;" parent="1" vertex="1">
          <mxGeometry x="-685" y="240" width="90" height="40" as="geometry" />
        </mxCell>
        <mxCell id="LnrfKWXW1_7QK9XkgKNR-48" value="redis" style="rounded=0;whiteSpace=wrap;html=1;fillColor=#d80073;strokeColor=#A50040;shadow=1;fontColor=#ffffff;" parent="1" vertex="1">
          <mxGeometry x="-394" y="344" width="110" height="50" as="geometry" />
        </mxCell>
        <mxCell id="LnrfKWXW1_7QK9XkgKNR-49" value="接入层" style="rounded=0;whiteSpace=wrap;html=1;fillColor=#099E31;strokeColor=none;fontColor=#ffffff;" parent="1" vertex="1">
          <mxGeometry x="-828" y="40" width="98" height="70" as="geometry" />
        </mxCell>
        <mxCell id="LnrfKWXW1_7QK9XkgKNR-50" value="服务层" style="rounded=0;whiteSpace=wrap;html=1;fillColor=#099E31;strokeColor=none;fontColor=#ffffff;" parent="1" vertex="1">
          <mxGeometry x="-828" y="118" width="98" height="202" as="geometry" />
        </mxCell>
        <mxCell id="LnrfKWXW1_7QK9XkgKNR-51" value="数据层" style="rounded=0;whiteSpace=wrap;html=1;fillColor=#099E31;strokeColor=none;fontColor=#ffffff;" parent="1" vertex="1">
          <mxGeometry x="-828" y="330" width="98" height="80" as="geometry" />
        </mxCell>
      </root>
    </mxGraphModel>
  </diagram>
</mxfile>
